# xmcd
#
# Track frame offsets: 
#        150
#        16137
#        38860
#        56217
#        74872
#        95640
#        111795
#        128272
#        143202
#        154792
#        170550
#        187275
#        203962
#        217817
#        237350
#        255532
#
# Disc length: 4047 seconds
#
# Revision: 0
# Processed by: cddbd v1.5.2PL0 Copyright (c) Steve Scherf et al.
# Submitted via: ExactAudioCopy v1.0b3
#
DISCID=ed0fcd10
DTITLE=中国人民解放军军乐团 - 中外军乐名曲
DYEAR=1996
DGENRE=Country
TTITLE0=01.走向世界（中0
TTITLE1=02.旧友（奥）
TTITLE2=03.美中之美（美）
TTITLE3=04.边防骑兵（中）
TTITLE4=05.拉德斯基进行曲（苏）
TTITLE5=06.光荣的近卫军（苏）
TTITLE6=07.长号在前（美）
TTITLE7=08.恰恰舞曲（英）
TTITLE8=09.卡门序曲（法）
TTITLE9=10.军威进行曲（中）
TTITLE10=11.双鹰旗下（奥）
TTITLE11=12.伯吉少校（英）
TTITLE12=13.越过海洋的握手（美）
TTITLE13=14.波列罗舞曲（英）
TTITLE14=15.星条旗永不落（美）
TTITLE15=16.芬加尔的山洞（德）
EXTD=
EXTT0=
EXTT1=
EXTT2=
EXTT3=
EXTT4=
EXTT5=
EXTT6=
EXTT7=
EXTT8=
EXTT9=
EXTT10=
EXTT11=
EXTT12=
EXTT13=
EXTT14=
EXTT15=
PLAYORDER=
